<?xml version="1.0" encoding="UTF-8"?>
<svg id="Capa_1" data-name="Capa 1" xmlns="http://www.w3.org/2000/svg" version="1.1" viewBox="0 0 150 150">
  <defs>
    <style>
      .cls-1 {
        fill: #bc973b;
        stroke-width: 0px;
      }
    </style>
  </defs>
  <path class="cls-1" d="M96.8,46.8h0c-.4-.4-1-.6-1.6-.5l-36.2,4.7c-1,0-1.8,1-1.8,2v39.4c-2.3-1.9-5.3-3-8.4-3-6.9,0-12.6,5.1-12.6,11.4s5.6,11.4,12.6,11.4,12.6-5.1,12.6-11.4v-34l32.1-4.1v18.1c-2.3-1.9-5.3-3-8.4-3-6.9,0-12.6,5.1-12.6,11.4s5.6,11.4,12.6,11.4,12.4-5,12.6-11.1v-41.2c-.2-.6-.4-1.1-.9-1.5ZM93.4,89.2c0,4-3.8,7.3-8.4,7.3s-8.4-3.3-8.4-7.3,3.8-7.3,8.4-7.3c4.6,0,8.4,3.3,8.4,7.3ZM93.4,50.7v7.8l-32.1,4.1v-7.8l32.1-4.1ZM57.2,100.9c0,4-3.8,7.3-8.4,7.3s-8.4-3.3-8.4-7.3,3.8-7.3,8.4-7.3,8.4,3.3,8.4,7.3Z"/>
</svg>