<?xml version="1.0" encoding="UTF-8"?>
<svg id="objects" xmlns="http://www.w3.org/2000/svg" viewBox="0 0 199.74 259.61">
  <defs>
    <style>
      .cls-1 {
        fill: #bc973b;
        stroke-width: 0px;
      }
    </style>
  </defs>
  <path class="cls-1" d="M100.95,89.6c-6.49,0-11.76,5.28-11.76,11.76s5.28,11.76,11.76,11.76,11.77-5.28,11.77-11.76-5.28-11.76-11.77-11.76ZM100.95,109.5c-4.49,0-8.13-3.65-8.13-8.13s3.65-8.13,8.13-8.13,8.14,3.65,8.14,8.13-3.65,8.13-8.14,8.13Z"/>
  <path class="cls-1" d="M52.93,108.4c.66,0,1.31-.26,1.79-.78l45.95-48.99c.1.01.18.06.28.06s.19-.05.28-.06l45.95,48.99c.48.52,1.14.78,1.79.78.6,0,1.21-.22,1.68-.66.99-.93,1.04-2.48.11-3.47l-47.36-50.49v-17.77h7.55c1.36,0,2.46-1.1,2.46-2.46s-1.1-2.46-2.46-2.46h-7.55v-8.58c0-1.36-1.1-2.46-2.46-2.46s-2.46,1.1-2.46,2.46v8.58h-7.55c-1.36,0-2.46,1.1-2.46,2.46s1.1,2.46,2.46,2.46h7.55v17.77l-47.35,50.49c-.93.99-.88,2.54.11,3.47.47.44,1.08.66,1.68.66Z"/>
  <path class="cls-1" d="M179.42,183.23l-47.03-50.14v-29.61l4.18,4.46c.48.52,1.14.78,1.79.78.6,0,1.2-.22,1.68-.66.99-.93,1.04-2.48.11-3.47l-37.41-39.89s-.05-.03-.06-.05c-.02-.02-.03-.05-.05-.07-.1-.1-.23-.14-.35-.22-.14-.09-.26-.2-.41-.26-.15-.06-.3-.07-.46-.1-.15-.03-.3-.07-.46-.07-.16,0-.31.04-.46.07-.16.03-.31.04-.46.1-.15.06-.28.17-.42.26-.11.08-.24.12-.34.21-.02.02-.03.04-.05.06-.02.02-.05.03-.07.05l-37.41,39.89c-.93.99-.88,2.54.11,3.47.47.44,1.08.66,1.68.66.66,0,1.31-.26,1.79-.78l4.18-4.46v29.24l-47.37,50.51c-.93.99-.88,2.54.11,3.47.47.44,1.08.66,1.68.66.66,0,1.31-.26,1.79-.78l43.79-46.69v3.62l-13.9,15.65-22.86,24.37c-.93.99-.88,2.54.11,3.47.47.44,1.08.66,1.68.66.66,0,1.31-.26,1.79-.78l1.67-1.78v54.94c0,1.36,1.1,2.46,2.46,2.46h120.99c1.36,0,2.46-1.1,2.46-2.46v-54.57l1.33,1.42c.48.52,1.14.78,1.79.78.6,0,1.21-.22,1.68-.66.99-.93,1.04-2.48.11-3.47l-16.39-17.48-20.03-22.55v-3.25l43.45,46.32c.48.52,1.14.78,1.79.78.6,0,1.2-.22,1.68-.66.99-.93,1.04-2.48.11-3.47ZM42.92,180.86l16.33-18.38,10.27-10.95v86.08h-13.05v-54.81c0-.81-.66-1.47-1.47-1.47s-1.47.66-1.47,1.47v54.81h-10.6v-56.74ZM74.43,144.45v-46.21l15.8-16.85,10.73-11.44,26.53,28.29v34.31c-.39.72-.39,1.57,0,2.3v9.33c-.39.72-.39,1.57,0,2.3v91.13h-9.88v-87.7c0-.33-.11-.65-.31-.9l-15.17-19.51c-.56-.72-1.77-.72-2.33,0l-15.17,19.51c-.2.26-.31.58-.31.9v87.7h-9.88v-93.15ZM87.25,237.61v-87.19l13.7-17.62,13.7,17.62v87.19h-27.4ZM158.99,180.86v56.74h-11.83v-54.81c0-.81-.66-1.47-1.47-1.47s-1.47.66-1.47,1.47v54.81h-11.83v-85.71l16.4,17.48,10.2,11.49Z"/>
</svg>