<?xml version="1.0" encoding="UTF-8"?>
<svg id="Capa_1" data-name="Capa 1" xmlns="http://www.w3.org/2000/svg" version="1.1" viewBox="0 0 150 150">
  <defs>
    <style>
      .cls-1 {
        fill: #bc973b;
        stroke-width: 0px;
      }
    </style>
  </defs>
  <path class="cls-1" d="M48.3,39.2h9c1.6,0,2.2,1,1.5,2.4-1.3,2.6-2.7,5.2-4,7.8-.2.3-.3.8-.2,1.1,1,6,2.1,11.9,3.2,17.9.8,4.6,1.6,9.1,2.4,13.7.3,1.6,0,3-1.1,4.2-2.3,2.8-4.5,5.6-6.9,8.4-2.2,2.6-5.7,2.6-7.8,0-2.3-2.8-4.6-5.6-6.9-8.4-1-1.3-1.3-2.7-1.1-4.3,1.5-8.2,2.9-16.5,4.4-24.7.4-2.3.8-4.5,1.2-6.8v-.9c-1.3-2.6-2.7-5.3-4.1-7.9-.7-1.4,0-2.4,1.5-2.4h9-.1ZM51.7,51.2h-6.6c-.4,0-.4.3-.4.5-1.8,10.2-3.6,20.5-5.5,30.7,0,.8,0,1.4.5,2.1,2.2,2.7,4.5,5.4,6.7,8.2,1.1,1.3,2.5,1.3,3.6,0,1.9-2.3,3.8-4.6,5.6-6.9,2-2.4,1.8-1.8,1.3-5-1.3-7.3-2.6-14.6-3.9-21.9-.4-2.6-.8-5.1-1.3-7.7ZM55.3,42.1h-14c1,2,2.1,4,3.1,6,0,0,.3.2.5.2h6.9c.2,0,.4,0,.5-.2.9-2,1.9-4,3-6Z"/>
  <path class="cls-1" d="M110.1,94.1v8.9c0,.8-.2,1.3-.9,1.7h-33.9c-.8-.4-1.1-1-1.1-1.9v-9.4c0-6.9,1.5-13.3,4.5-19.5,1.4-2.8,3-5.6,4.5-8.3.2-.3.2-.7.2-1-.4-2.8-.8-5.6-1.3-8.3,0-.3-.2-.7-.3-1-1.1-2-2.1-4.1-3.2-6-.6-1-.5-1.8,0-2.7.3-.4.5-.8.9-1.1.6-.4.6-.9.6-1.5v-5.4c0-1.3.5-1.8,1.8-1.8h4.4c1.3,0,1.7.4,1.7,1.7v5.4c0,.2,0,.5.2.6,1.3,1,2.6,2,3.9,3,1.2-.9,2.4-1.9,3.7-2.9,0,0,.2-.4.2-.6v-5.4c0-1.3.5-1.8,1.8-1.8h4.6c1.1,0,1.5.5,1.5,1.5v6.1c0,.5,0,.8.5,1.1.5.4.9.9,1.2,1.4.5.7.6,1.5,0,2.4-1,1.9-2,3.8-3,5.7-.6,1.1-.7,2.3-.9,3.4-.4,2.1-.7,4.2-1,6.4v.6c.7,1.3,1.4,2.5,2.2,3.8,2.8,5,7,12.6,7,24.9h.2ZM101,70.6c-.5-.9-1-1.7-1.4-2.5-.4-.9-.9-1.6-2-1.3h0c-.7,0-1.2-.7-1.1-1.3,0-.6.5-1.2,1.1-1.3h.9v-.3c.3-2.1.6-4.2,1-6.2.2-1.2.3-2.4.9-3.6,1-1.8,1.9-3.6,2.9-5.4.2-.4.2-.6,0-.9-1.3-1.3-4.3-1.8-5.8-.7-1.3,1-2.5,2.1-3.7,3.3-1.1,1.1-1.7,1.1-2.7,0-.7-.8-1.4-1.6-2.2-2.3-1.1-1-2.3-1.8-3.9-1.6-1.1,0-2.2.3-3.1.9-.7.5-.7.6-.3,1.3,1,1.9,2,3.8,3,5.7.2.3.3.6.4,1,.3,1.5.5,3,.7,4.5.2,1.4.5,2.9.7,4.3h1.1c.7,0,1.3.6,1.3,1.3s-.5,1.2-1.2,1.3h-1.1c-.2,0-.5.2-.6.3-1.6,3-3.3,5.9-4.7,9-2.4,5.2-3.8,10.7-3.8,16.5v9.4h2.6v-6.4c0-.9.6-1.5,1.4-1.5s1.3.6,1.3,1.5v6.4h2.7v-2.6c0-.7.6-1.3,1.3-1.3s1.3.5,1.4,1.2v2.8h14.6v-2.6c0-.6.3-1.1.9-1.3.5-.2,1,0,1.4.4.2.3.3.7.3,1.1v2.4h2.6v-8.1c-.4-10.3-4-19.5-6.8-23.3h-.1ZM98.8,43.6c.9,0,1.7.2,2.6.3v-4.4h-2.6v4.1ZM82.9,39.4v4.4c.9,0,1.7-.2,2.6-.3v-4.2h-2.6Z"/>
  <path class="cls-1" d="M93.9,69.4c0,.8-.7,1.5-1.5,1.5s-1.5-.7-1.5-1.5.7-1.5,1.5-1.5,1.5.8,1.5,1.5Z"/>
</svg>