<?xml version="1.0" encoding="UTF-8"?>
<svg id="objects" xmlns="http://www.w3.org/2000/svg" viewBox="0 0 222.62 243.74">
  <defs>
    <style>
      .cls-1 {
        fill: #c4a454;
      }

      .cls-1, .cls-2 {
        stroke-width: 0px;
      }

      .cls-2 {
        fill: #bc973b;
      }
    </style>
  </defs>
  <g>
    <path class="cls-2" d="M89.79,80.61s16.73-15.4,19.37-18.05h9.24s-5.28,10.12-7.04,15.85l-21.57,2.2Z"/>
    <path class="cls-2" d="M80.55,204.73s20.25-3.08,23.33-3.52c0,0,9.85,26.28,15.14,33.77,0,0-12.5-.32-19.98-4.72l-18.49-25.53Z"/>
    <path class="cls-2" d="M142.17,157.64s-3.96,34.33-7.92,42.69c0,0,21.57.88,26.85,3.52,0,0,16.29-20.25,15.85-41.81,0,0-29.05-5.28-34.77-4.4Z"/>
    <path class="cls-2" d="M133.37,77.97s8.36,21.57,7.92,34.77l29.49,3.96s-8.27-23.39-19.37-36.97l-18.05-1.76Z"/>
    <path class="cls-2" d="M67.35,119.78s19.81-4.84,32.57-5.72c0,0-4.4,32.57-3.52,44.01l-32.13,5.28s-3.96-29.49,3.08-43.57Z"/>
    <g>
      <g>
        <path class="cls-2" d="M122.09,64.11c47.21,0,85.47,38.27,85.47,85.47s-38.27,85.47-85.47,85.47-85.47-38.27-85.47-85.47,38.27-85.47,85.47-85.47M122.09,61.29c-48.68,0-88.29,39.61-88.29,88.29s39.61,88.29,88.29,88.29,88.29-39.61,88.29-88.29-39.61-88.29-88.29-88.29h0Z"/>
        <path class="cls-1" d="M117.44,64.57c-3.22,3.63-5.17,6.34-7.38,11.57-.29.71-.72,1.78-1.26,3.11-.26.67-.54,1.4-.84,2.19-.16.42-.32.84-.49,1.28-.17.47-.34.95-.52,1.43-.34.97-.72,1.96-1.06,2.99-1.41,4.1-2.81,8.6-4.1,13.29-1.25,4.69-2.44,9.55-3.36,14.35-1.92,9.59-2.95,18.89-3.36,25.77-.26,3.44-.28,6.28-.33,8.25-.02.99-.04,1.76-.05,2.28,0,.52,0,.8,0,.8,0,0,.02,1.11.05,3.09.02.99.04,2.19.06,3.58.08,1.39.17,2.95.27,4.68.44,6.88,1.49,16.2,3.65,25.77.59,2.38,1.19,4.78,1.78,7.18.71,2.37,1.43,4.74,2.13,7.07.73,2.33,1.61,4.56,2.39,6.76.4,1.1.77,2.19,1.23,3.22.43,1.01.85,2.01,1.26,2.99.75,1.73,1.36,3.33,2.01,4.61.63,1.29,1.14,2.33,1.48,3.02.63,1.28,1.23,2.4,1.82,3.42.58,1.03,1.26,1.89,1.89,2.75,1.3,1.69,2.66,3.21,4.31,4.96-.64-2.35-1.21-4.29-1.94-6.25-.35-.99-.82-1.95-1.24-3.03-.43-1.07-.94-2.21-1.54-3.46-.33-.68-.82-1.7-1.43-2.96-.63-1.25-1.22-2.82-1.95-4.51-.4-.95-.81-1.93-1.23-2.92-.45-1.01-.81-2.07-1.2-3.15-.75-2.15-1.62-4.34-2.33-6.61-.69-2.28-1.39-4.59-2.08-6.9-.58-2.35-1.17-4.7-1.75-7.02-2.11-9.35-3.14-18.46-3.58-25.19-.1-1.69-.19-3.22-.27-4.58-.02-1.36-.04-2.54-.06-3.5-.03-1.93-.05-3.02-.05-3.02,0,0,0-.27,0-.79.01-.51.03-1.27.05-2.24.05-1.93.08-4.71.33-8.08.4-6.74,1.42-15.87,3.31-25.28.9-4.72,2.08-9.49,3.3-14.1,1.27-4.6,2.64-9.03,4.03-13.06.34-1.01.71-1.98,1.04-2.93.17-.48.34-.95.51-1.41.16-.42.32-.84.48-1.25.3-.77.57-1.49.82-2.15.52-1.3.94-2.36,1.22-3.06,2.12-5.16,2.85-8.26,3.99-12.97Z"/>
        <path class="cls-1" d="M125.33,64.57c.99,2.2,1.6,4.1,2.37,6.02.74,1.93,1.58,3.92,2.72,6.43.29.69.74,1.72,1.28,2.99.25.65.53,1.36.82,2.12l.22.56c.08.22.18.44.25.67.16.46.32.92.49,1.39.32.94.68,1.9.98,2.9,2.6,7.97,4.55,17.73,5.6,27.17,1.01,9.45,1.19,18.56,1.02,25.27-.08,3.36-.24,6.11-.31,8.04-.11,1.92-.21,3-.21,3,0,0-.08,1.08-.23,3-.11,1.92-.42,4.67-.78,8.01-.09.84-.18,1.71-.28,2.61-.12.9-.25,1.84-.38,2.8-.27,1.93-.55,3.98-.85,6.11-.75,4.25-1.43,8.87-2.43,13.54-.88,4.7-2.02,9.45-3.08,14.08-.53,2.32-1.17,4.57-1.72,6.78-.29,1.1-.57,2.19-.84,3.26-.14.53-.28,1.06-.41,1.59-.14.49-.28.98-.42,1.47-1.02,3.56-1.86,6.48-2.28,7.94-1.59,5.38-2,8.58-2.29,13.43,2.52-4.12,4.15-6.98,5.81-12.39.43-1.47,1.28-4.42,2.32-8,.14-.49.28-.98.43-1.48.14-.53.28-1.06.42-1.6.28-1.08.56-2.17.85-3.29.56-2.23,1.2-4.51,1.74-6.85,1.07-4.68,2.22-9.48,3.11-14.23,1.01-4.72,1.7-9.4,2.45-13.7.3-2.16.59-4.24.86-6.19.13-.98.26-1.93.39-2.84.1-.92.19-1.8.28-2.65.36-3.39.68-6.17.79-8.12.15-1.95.23-3.04.23-3.04,0,0,.1-1.1.21-3.04.07-1.95.24-4.75.32-8.16.17-6.82,0-16.09-1.03-25.75-1.07-9.65-3.07-19.67-5.75-27.9-.31-1.04-.67-2.03-1.01-3-.17-.49-.34-.97-.5-1.44-.08-.24-.18-.47-.26-.7l-.23-.58c-.31-.79-.6-1.53-.86-2.2-.58-1.33-1.04-2.4-1.35-3.11-1.21-2.61-2.4-4.55-3.72-6.25-1.34-1.68-2.78-3.19-4.7-4.68Z"/>
        <path class="cls-1" d="M107.18,65.36c-2.26.89-4.12,1.77-5.93,2.9-1.83,1.11-3.62,2.48-5.71,4.43-.58.52-1.39,1.35-2.42,2.35-.52.5-1.07,1.06-1.65,1.68-.71.75-1.45,1.53-2.2,2.33-.76.86-1.54,1.74-2.34,2.64-3.13,3.66-6.37,7.81-9.34,12.34-.76,1.12-1.44,2.31-2.16,3.47l-1.07,1.75-.99,1.81c-.65,1.21-1.33,2.41-1.95,3.64-.59,1.24-1.17,2.48-1.75,3.72-4.62,9.91-6.91,20.24-7.78,27.87-.18,1.92-.38,3.66-.49,5.21-.03,1.55-.06,2.89-.08,3.99-.02,1.1-.04,1.96-.05,2.55-.01.29,0,.52.01.67,0,.15.01.23.01.23,0,0,.07,1.24.2,3.44.08,1.1.1,2.45.28,3.98.21,1.53.46,3.27.72,5.17.2,1.92.72,3.95,1.19,6.12.24,1.09.49,2.21.74,3.36.27,1.15.67,2.28,1.01,3.46,1.31,4.75,3.26,9.7,5.37,14.71,1.16,2.45,2.34,4.93,3.52,7.41,1.31,2.4,2.67,4.78,3.98,7.13.33.59.66,1.17.99,1.76.33.58.72,1.12,1.07,1.68.72,1.11,1.43,2.21,2.14,3.29.7,1.08,1.4,2.15,2.08,3.19.35.52.66,1.06,1.03,1.54.34.46.68.92,1.02,1.38,2.24,3.02,4.07,5.49,4.99,6.73.82,1.16,1.72,2.06,2.52,2.93.81.85,1.6,1.61,2.39,2.32,1.58,1.42,3.19,2.66,5.14,4.08-1.06-2.2-1.98-4-3.07-5.79-.55-.9-1.14-1.79-1.81-2.73-.66-.95-1.47-1.9-2.27-3.04-.9-1.22-2.69-3.65-4.88-6.62-.33-.45-.66-.9-1-1.35-.36-.48-.67-1-1.01-1.51-.67-1.03-1.34-2.07-2.03-3.13-.69-1.06-1.39-2.13-2.09-3.22-.35-.55-.72-1.08-1.05-1.65-.32-.57-.64-1.14-.96-1.71-1.28-2.3-2.61-4.61-3.89-6.96-1.14-2.41-2.29-4.82-3.42-7.21-2.05-4.86-3.94-9.66-5.21-14.25-.33-1.14-.72-2.24-.98-3.35-.25-1.11-.49-2.19-.72-3.24-.45-2.1-.97-4.06-1.15-5.9-.26-1.83-.49-3.5-.7-4.98-.17-1.48-.19-2.77-.27-3.83-.13-2.11-.2-3.31-.2-3.31,0,0,0-.07-.01-.22-.01-.14-.02-.36,0-.64.01-.56.03-1.39.05-2.45.02-1.06.05-2.35.08-3.83.11-1.48.3-3.16.47-5,.84-7.32,3.03-17.22,7.48-26.77.56-1.19,1.12-2.38,1.69-3.58.6-1.18,1.26-2.34,1.88-3.51l.95-1.75,1.04-1.69c.7-1.12,1.35-2.27,2.09-3.35,2.87-4.38,6.02-8.4,9.05-11.95.77-.88,1.53-1.73,2.27-2.56.73-.78,1.45-1.53,2.14-2.26.56-.6,1.09-1.15,1.6-1.63,1-.98,1.78-1.79,2.34-2.29,2.01-1.91,3.53-3.47,4.92-5.02,1.38-1.57,2.63-3.12,4.21-4.96Z"/>
        <path class="cls-1" d="M140.32,66.15c2.36,4.23,3.87,7.03,7.26,11.45.45.61,1.12,1.51,1.96,2.64.41.57.86,1.19,1.34,1.86.58.83,1.18,1.69,1.79,2.57.63.93,1.27,1.88,1.91,2.87,5.16,7.88,10.48,17.7,14.22,27.63,3.82,9.9,5.96,19.84,6.71,27.23.41,3.7.52,6.75.55,8.88,0,1.06,0,1.89,0,2.46-.02.56-.02.86-.02.86,0,0-.01.3-.03.86-.03.56-.03,1.4-.11,2.46-.16,2.12-.37,5.17-1.01,8.82-.61,3.66-1.57,7.93-3.04,12.45-1.46,4.53-3.44,9.3-5.88,13.98-2.43,4.68-5.32,9.27-8.45,13.49-.75,1.08-1.59,2.08-2.38,3.11-.78,1.03-1.61,2.01-2.42,2.97-.82.96-1.6,1.93-2.44,2.82-.8.88-1.59,1.74-2.35,2.59-1.28,1.32-2.45,2.51-3.43,3.52-1.01.97-1.82,1.76-2.37,2.28-4.02,3.85-6.04,6.32-8.93,10.23,4.36-2.09,7.29-3.67,11.45-7.57.56-.53,1.41-1.32,2.44-2.32,1.01-1.03,2.2-2.25,3.52-3.6.79-.87,1.6-1.76,2.42-2.66.86-.92,1.67-1.91,2.51-2.9.84-.99,1.69-2,2.5-3.06.81-1.06,1.67-2.09,2.45-3.21,3.23-4.36,6.23-9.11,8.75-13.98,2.53-4.86,4.59-9.83,6.11-14.55,1.53-4.72,2.52-9.17,3.16-12.99.66-3.81.88-6.99,1.05-9.2.09-1.1.08-1.97.12-2.56.02-.59.03-.9.03-.9,0,0,0-.31.03-.9,0-.59,0-1.45,0-2.56-.02-2.21-.14-5.39-.56-9.23-.77-7.68-3-17.96-6.92-28.15-3.85-10.22-9.3-20.27-14.57-28.33-.65-1.01-1.31-1.99-1.96-2.94-.33-.47-.65-.94-.96-1.39-.29-.42-.58-.83-.87-1.23-.49-.68-.96-1.32-1.38-1.9-.85-1.16-1.55-2.08-2.02-2.69-3.51-4.48-6.1-6.59-10.18-9.23Z"/>
        <path class="cls-1" d="M62.21,88.24c4.82-.44,8.01-.71,13.41-2.1.92-.22,2.41-.61,5.53-1.32,2.98-.67,6.99-1.5,11.36-2.25,4.37-.75,9.09-1.38,13.44-1.84,4.35-.48,8.34-.7,11.24-.85,1.45-.09,2.62-.09,3.44-.13.81-.02,1.26-.04,1.26-.04,0,0,.38-.01,1.07-.03.69,0,1.68,0,2.92,0,1.24-.02,2.72,0,4.37.06.83.02,1.69.04,2.6.07.9.05,1.84.1,2.8.15,3.85.19,8.11.62,12.22,1.14,2.05.29,4.07.6,5.98.91,1.9.37,3.72.69,5.35,1.03,2.07.48,3.75.86,5.07,1.17,1.31.35,2.28.61,2.94.79,2.7.67,4.79,1.26,6.87,1.56,2.06.36,4.04.64,6.47.89-2-1.34-3.71-2.49-5.62-3.44-1.92-.9-3.98-1.83-6.75-2.54-.68-.19-1.67-.46-3.02-.83-1.36-.32-3.08-.71-5.2-1.21-1.68-.35-3.53-.68-5.49-1.06-1.96-.32-4.03-.64-6.13-.93-4.21-.52-8.56-.97-12.5-1.15-.98-.05-1.94-.1-2.86-.15-.92-.02-1.81-.05-2.65-.07-1.69-.06-3.2-.07-4.46-.05-1.26,0-2.28,0-2.98.01-.7.02-1.09.03-1.09.03,0,0-.46.01-1.29.04-.83.03-2.03.03-3.5.12-2.95.15-7.02.38-11.45.86-4.43.46-9.24,1.1-13.68,1.86-4.44.76-8.52,1.61-11.55,2.29-3.17.72-4.69,1.13-5.62,1.36-5.49,1.47-8.44,2.99-12.5,5.65Z"/>
        <path class="cls-1" d="M40.12,126.89c4.83-.39,8.03-.67,13.44-2.12.73-.19,1.83-.48,3.2-.83.68-.17,1.43-.36,2.24-.56.83-.2,1.69-.41,2.57-.62.91-.22,1.85-.44,2.81-.67,7.7-1.76,16.85-3.54,25.68-4.79,8.82-1.27,17.29-2.05,23.56-2.44,3.13-.16,5.71-.3,7.5-.35,1.8-.04,2.81-.06,2.81-.06,0,0,1.01-.02,2.81-.06,1.79-.01,4.37,0,7.51.03,6.26.14,14.75.6,23.56,1.76,2.2.29,4.43.57,6.63.98,2.21.39,4.42.72,6.57,1.21,1.08.23,2.15.46,3.21.68,1.06.21,2.11.45,3.13.73,2.02.52,3.98,1.03,5.86,1.52,3.51,1.1,6.43,1.89,7.83,2.44,2.62.94,4.75,1.45,6.78,1.96,2.03.51,4.01.84,6.42,1.21-1.93-1.44-3.6-2.62-5.44-3.71-1.84-1.09-3.91-1.93-6.58-2.93-1.44-.57-4.41-1.4-8.01-2.52l-.29-.09-.37-.09-.74-.19c-.5-.13-1-.26-1.5-.39-1.01-.26-2.04-.52-3.09-.79-1.04-.28-2.11-.52-3.19-.74-1.08-.23-2.18-.46-3.28-.7-2.2-.51-4.45-.84-6.71-1.24-2.25-.42-4.52-.7-6.76-1-8.97-1.18-17.6-1.63-23.96-1.78-3.18-.02-5.8-.04-7.62-.03-1.82.04-2.85.06-2.85.06,0,0-1.03.02-2.85.06-1.82.06-4.43.19-7.61.35-6.35.39-14.93,1.18-23.86,2.46-8.93,1.26-18.19,3.07-25.98,4.85-.97.23-1.92.46-2.85.67-.89.22-1.76.43-2.6.63-.81.21-1.57.4-2.26.58-1.38.37-2.49.66-3.23.86-5.46,1.52-8.39,3.05-12.48,5.66Z"/>
        <path class="cls-1" d="M38.54,170.29c4.83-.32,8.04-.57,13.46-1.96.74-.18,1.84-.46,3.21-.8.69-.16,1.44-.35,2.24-.54,1.71-.39,3.54-.8,5.45-1.24,7.79-1.69,17.05-3.41,25.98-4.58,8.92-1.21,17.48-1.93,23.81-2.29,6.33-.33,10.42-.37,10.42-.37,0,0,1.02-.02,2.83-.05,1.81.02,4.42,0,7.58.06,6.33.12,14.9.61,23.81,1.73,1.11.14,2.23.28,3.35.42l3.35.53c2.24.35,4.47.7,6.65,1.17,2.18.45,4.35.81,6.42,1.35,1.04.25,2.06.49,3.07.73.5.12,1,.24,1.49.36l.74.18.65.18c3.54,1.02,6.47,1.77,7.89,2.29,2.64.88,4.79,1.34,6.83,1.8,2.04.45,4.04.73,6.45,1.03-1.97-1.38-3.67-2.52-5.53-3.56-1.86-1.05-3.95-1.84-6.64-2.77-1.45-.54-4.43-1.32-8.05-2.36l-.66-.19-.75-.18c-.5-.12-1.01-.24-1.52-.36-1.03-.24-2.07-.49-3.13-.75-2.11-.54-4.32-.92-6.54-1.38-2.22-.47-4.5-.83-6.78-1.19l-3.41-.54c-1.14-.14-2.28-.28-3.41-.42-9.06-1.13-17.76-1.62-24.18-1.74-3.21-.07-5.85-.04-7.69-.06-1.84.04-2.87.06-2.87.06,0,0-4.14.04-10.55.37-6.41.36-15.08,1.09-24.1,2.31-9.03,1.18-18.39,2.92-26.27,4.63-1.93.44-3.78.86-5.51,1.26-.81.2-1.58.38-2.27.55-1.39.33-2.5.64-3.24.82-5.47,1.45-8.42,2.95-12.55,5.5Z"/>
        <path class="cls-1" d="M59.85,209.73c4.84-.15,8.05-.29,13.52-1.48.93-.2,2.43-.53,5.58-1.16,6.24-1.25,16.83-3.02,25.91-3.9,4.54-.48,8.69-.74,11.71-.92,3.02-.13,4.9-.2,4.9-.2,0,0,.39-.02,1.11-.03.72,0,1.75-.02,3.04-.04,2.58-.03,6.16,0,10.17.18,8.03.27,17.72,1.57,24.47,3.13,2.08.42,3.72.92,5.03,1.25,1.32.33,2.27.62,2.91.84,1.32.42,2.51.74,3.62,1.03,1.1.33,2.12.59,3.14.81.51.1,1.02.2,1.53.31.5.11,1.01.23,1.53.34,1.04.22,2.13.42,3.33.64-.95-.74-1.83-1.42-2.71-2.06-.45-.31-.88-.62-1.32-.93-.45-.28-.91-.54-1.37-.8-.94-.52-1.92-1.02-3-1.52-1.09-.46-2.3-.88-3.67-1.33-.67-.23-1.66-.54-3.02-.88-1.36-.35-3.06-.87-5.2-1.3-6.97-1.61-16.92-2.93-25.11-3.2-4.09-.19-7.75-.2-10.37-.17-1.31.02-2.37.04-3.1.05-.73,0-1.13.03-1.13.03,0,0-1.91.08-4.98.2-3.06.17-7.29.43-11.89.92-9.22.88-19.94,2.67-26.25,3.95-3.18.64-4.71.98-5.64,1.19-5.52,1.26-8.52,2.65-12.74,5.06Z"/>
      </g>
      <path class="cls-2" d="M96.62,67.41s24.43-30.37,52.16.66c0,0-29.05-7.92-52.16-.66Z"/>
      <path class="cls-1" d="M122.37,59.52c1.76-2.2,2.71-3.69,2.75-6.32.05-2.85,0-17.12,0-17.12,0,0,.05-14.27,0-17.12-.04-2.63-.99-4.12-2.75-6.32-1.76,2.2-2.71,3.69-2.75,6.32-.05,2.85,0,17.12,0,17.12,0,0-.05,14.27,0,17.12.04,2.63.99,4.12,2.75,6.32Z"/>
    </g>
  </g>
  <polygon class="cls-2" points="77.38 10.53 80.93 27.02 97 21.86 84.49 33.18 97 44.51 80.93 39.35 77.38 55.84 73.82 39.35 57.75 44.51 70.26 33.18 57.75 21.86 73.82 27.02 77.38 10.53"/>
  <polygon class="cls-2" points="15.05 196.21 17.78 208.86 30.11 204.9 20.51 213.59 30.11 222.28 17.78 218.31 15.05 230.97 12.33 218.31 0 222.28 9.6 213.59 0 204.9 12.33 208.86 15.05 196.21"/>
  <polygon class="cls-2" points="207.56 51.47 210.29 64.13 222.62 60.16 213.02 68.85 222.62 77.55 210.29 73.58 207.56 86.24 204.84 73.58 192.51 77.55 202.11 68.85 192.51 60.16 204.84 64.13 207.56 51.47"/>
</svg>