<?xml version="1.0" encoding="UTF-8"?>
<svg id="Capa_1" data-name="Capa 1" xmlns="http://www.w3.org/2000/svg" version="1.1" viewBox="0 0 150 150">
  <defs>
    <style>
      .cls-1 {
        fill: #bc973b;
        stroke-width: 0px;
      }
    </style>
  </defs>
  <path class="cls-1" d="M89.3,108.7h-28.6c-10.4,0-18.9-8.5-18.9-18.9v-28.6c0-10.4,8.5-18.9,18.9-18.9h28.6c10.4,0,18.9,8.5,18.9,18.9v28.6c0,10.4-8.5,18.9-18.9,18.9ZM60.7,48c-7.3,0-13.2,5.9-13.2,13.2v28.6c0,7.3,5.9,13.2,13.2,13.2h28.6c7.3,0,13.2-5.9,13.2-13.2v-28.6c0-7.3-5.9-13.2-13.2-13.2h-28.6Z"/>
  <path class="cls-1" d="M75,92.5c-9.4,0-17-7.6-17-17s7.6-17,17-17,17,7.6,17,17-7.6,17-17,17ZM75,64.2c-6.2,0-11.3,5.1-11.3,11.3s5.1,11.3,11.3,11.3,11.3-5.1,11.3-11.3-5.1-11.3-11.3-11.3Z"/>
  <path class="cls-1" d="M96.8,57.5c0,2.3-1.8,4.1-4.1,4.1s-4.1-1.8-4.1-4.1,1.8-4.1,4.1-4.1,4.1,1.9,4.1,4.1Z"/>
</svg>